<?xml version="1.0" encoding="UTF-8" standalone="no"?>
<!DOCTYPE svg PUBLIC "-//W3C//DTD SVG 1.1//EN" "http://www.w3.org/Graphics/SVG/1.1/DTD/svg11.dtd">
<svg version="1.1" xmlns="http://www.w3.org/2000/svg" xmlns:xlink="http://www.w3.org/1999/xlink" preserveAspectRatio="xMidYMid meet" viewBox="0 0 39 39" width="39" height="39"><defs><path d="M35.75 3.66C36.44 3.66 37 4.22 37 4.91C37 6.16 37 8.66 37 9.91C37 10.6 36.44 11.16 35.75 11.16C29 11.16 10 11.16 3.25 11.16C2.56 11.16 2 10.6 2 9.91C2 8.66 2 6.16 2 4.91C2 4.22 2.56 3.66 3.25 3.66C10 3.66 29 3.66 35.75 3.66Z" id="ifzPI8bZi"></path><path d="M35.75 15.84C36.44 15.84 37 16.4 37 17.09C37 18.34 37 20.84 37 22.09C37 22.78 36.44 23.34 35.75 23.34C29 23.34 10 23.34 3.25 23.34C2.56 23.34 2 22.78 2 22.09C2 20.84 2 18.34 2 17.09C2 16.4 2.56 15.84 3.25 15.84C10 15.84 29 15.84 35.75 15.84Z" id="g9vOzjeWO"></path><path d="M35.75 27.84C36.44 27.84 37 28.4 37 29.09C37 30.34 37 32.84 37 34.09C37 34.78 36.44 35.34 35.75 35.34C29 35.34 10 35.34 3.25 35.34C2.56 35.34 2 34.78 2 34.09C2 32.84 2 30.34 2 29.09C2 28.4 2.56 27.84 3.25 27.84C10 27.84 29 27.84 35.75 27.84Z" id="bqoz5ghl3"></path></defs><g><g><g><use xlink:href="#ifzPI8bZi" opacity="1" fill="#ffc740" fill-opacity="1"></use></g><g><use xlink:href="#g9vOzjeWO" opacity="1" fill="#ffc740" fill-opacity="1"></use></g><g><use xlink:href="#bqoz5ghl3" opacity="1" fill="#ffc740" fill-opacity="1"></use></g></g></g></svg>